<svg width="24" height="24" viewBox="0 0 24 24" fill="none" xmlns="http://www.w3.org/2000/svg">
<path d="M21 12C21 13.5221 20.614 15.0193 19.878 16.3517C19.142 17.684 18.0802 18.808 16.7917 19.6183C15.5033 20.4287 14.0304 20.8991 12.5107 20.9855C10.9911 21.0719 9.47436 20.7714 8.10239 20.1123C6.73043 19.4531 5.54806 18.4567 4.66585 17.2163C3.78365 15.976 3.23044 14.5321 3.05797 13.0198C2.88549 11.5075 3.09938 9.9762 3.67963 8.56904C4.25989 7.16187 5.18755 5.92486 6.37585 4.97369L7.94175 6.92998C7.08429 7.61632 6.41492 8.50892 5.99622 9.5243C5.57752 10.5397 5.42318 11.6446 5.54764 12.7359C5.67209 13.8271 6.07128 14.869 6.70785 15.764C7.34443 16.659 8.1976 17.378 9.18758 17.8536C10.1776 18.3293 11.272 18.5461 12.3685 18.4837C13.4651 18.4214 14.5279 18.082 15.4576 17.4972C16.3873 16.9125 17.1535 16.1015 17.6846 15.1401C18.2156 14.1787 18.4942 13.0983 18.4942 12H21Z" fill="#2C2C2D" fill-opacity="0.82"/>
<rect x="11" y="4" width="7" height="7" rx="3.5" fill="#292929" fill-opacity="0.52"/>
</svg>
