<svg width="24" height="24" viewBox="0 0 24 24" fill="none" xmlns="http://www.w3.org/2000/svg">
<path d="M7.59992 5.83688C8.17263 4.67644 9.82737 4.67644 10.4001 5.83688C10.6275 6.29769 11.0671 6.61709 11.5757 6.69098C12.8563 6.87707 13.3676 8.45083 12.441 9.3541C12.073 9.71279 11.9051 10.2296 11.9919 10.7361C12.2107 12.0115 10.872 12.9841 9.72654 12.382C9.2717 12.1428 8.7283 12.1428 8.27346 12.382C7.12804 12.9841 5.78932 12.0115 6.00807 10.7361C6.09494 10.2296 5.92702 9.71279 5.55905 9.3541C4.63238 8.45083 5.14373 6.87707 6.42435 6.69098C6.93288 6.61709 7.37249 6.29769 7.59992 5.83688Z" fill="#2C2C2D" fill-opacity="0.82"/>
<rect x="7.38095" y="19.7445" width="8" height="13" rx="2" transform="rotate(-115 7.38095 19.7445)" fill="#292929" fill-opacity="0.52"/>
</svg>
