<svg width="24" height="24" viewBox="0 0 24 24" fill="none" xmlns="http://www.w3.org/2000/svg">
<path d="M10.0719 12.7972C10.3429 12.9256 10.6571 12.9256 10.9281 12.7972L18.0921 9.40374C18.8547 9.04253 18.8547 7.95747 18.0921 7.59626L10.9281 4.20278C10.6571 4.07443 10.3429 4.07443 10.0719 4.20278L2.90789 7.59626C2.14534 7.95747 2.14534 9.04253 2.90789 9.40374L10.0719 12.7972Z" fill="#292929" fill-opacity="0.52"/>
<path d="M11.9281 9.20278C11.6571 9.07443 11.3429 9.07443 11.0719 9.20278L3.90789 12.5963C3.14534 12.9575 3.14534 14.0425 3.90789 14.4037L11.0719 17.7972C11.3429 17.9256 11.6571 17.9256 11.9281 17.7972L19.0921 14.4037C19.8547 14.0425 19.8547 12.9575 19.0921 12.5963L11.9281 9.20278Z" fill="#2C2C2D" fill-opacity="0.82"/>
</svg>
