<svg width="24" height="24" viewBox="0 0 24 24" fill="none" xmlns="http://www.w3.org/2000/svg">
<path d="M4.2725 6.36949C5.04412 6.02858 5.8739 5.92129 6.68832 6.05713C7.50275 6.19296 8.27669 6.56772 8.94159 7.14822C9.60649 7.72872 10.1418 8.49703 10.5002 9.3851C10.8585 10.2732 11.0288 11.2536 10.996 12.2395C10.9632 13.2254 10.7283 14.1864 10.312 15.0374C9.89576 15.8883 9.31105 16.6029 8.60968 17.1179C7.90831 17.6329 7.11193 17.9324 6.29106 17.9898C5.4702 18.0473 4.65021 17.8609 3.90371 17.4472L4.74126 15.2708C5.1895 15.5192 5.68188 15.6312 6.17477 15.5967C6.66767 15.5622 7.14587 15.3823 7.56702 15.0731C7.98816 14.7639 8.33926 14.3348 8.5892 13.8238C8.83914 13.3129 8.98021 12.7358 8.99992 12.1438C9.01963 11.5518 8.91737 10.9631 8.70219 10.4299C8.48701 9.8966 8.16556 9.43525 7.76632 9.08669C7.36707 8.73812 6.90235 8.51309 6.41331 8.43153C5.92428 8.34996 5.42603 8.41438 4.9627 8.61909L4.2725 6.36949Z" fill="#292929" fill-opacity="0.52"/>
<path d="M19.7275 6.36949C18.9559 6.02858 18.1261 5.92129 17.3117 6.05713C16.4973 6.19296 15.7233 6.56772 15.0584 7.14822C14.3935 7.72872 13.8582 8.49703 13.4998 9.3851C13.1415 10.2732 12.9712 11.2536 13.004 12.2395C13.0368 13.2254 13.2717 14.1864 13.688 15.0374C14.1042 15.8883 14.6889 16.6029 15.3903 17.1179C16.0917 17.6329 16.8881 17.9324 17.7089 17.9898C18.5298 18.0473 19.3498 17.8609 20.0963 17.4472L19.2661 15.29C18.8152 15.5398 18.32 15.6524 17.8242 15.6177C17.3284 15.583 16.8474 15.4021 16.4238 15.0911C16.0002 14.78 15.6471 14.3484 15.3957 13.8345C15.1443 13.3205 15.0024 12.7401 14.9825 12.1447C14.9627 11.5492 15.0656 10.957 15.282 10.4207C15.4984 9.8843 15.8218 9.42026 16.2234 9.06965C16.6249 8.71905 17.0924 8.4927 17.5843 8.41066C18.0762 8.32862 18.5773 8.39342 19.0434 8.59932L19.7275 6.36949Z" fill="#2C2C2D" fill-opacity="0.82"/>
</svg>
