<svg width="1280" height="720" viewBox="0 0 1280 720" fill="none" xmlns="http://www.w3.org/2000/svg">
<path d="M243.81 243.809H182.857V304.762H243.81V243.809Z" fill="#D9D9D9" fill-opacity="0.2"/>
<path d="M1158.1 60.9524H1097.14L1097.14 121.905H1158.1L1158.1 60.9524Z" fill="#D9D9D9" fill-opacity="0.2"/>
<path d="M1097.14 487.619H1036.19L1036.19 548.571H1097.14L1097.14 487.619Z" fill="#D9D9D9" fill-opacity="0.2"/>
<path d="M548.571 548.571H487.619V609.524H548.571V548.571Z" fill="#D9D9D9" fill-opacity="0.2"/>
<path d="M121.905 426.667H60.9524V487.619H121.905L121.905 426.667Z" fill="#D9D9D9" fill-opacity="0.2"/>
<path d="M121.905 60.9524H60.9524V121.905L121.905 121.905L121.905 60.9524Z" fill="#D9D9D9" fill-opacity="0.2"/>
<path d="M1280 243.809H1219.05L1219.05 304.762H1280L1280 243.809Z" fill="#D9D9D9" fill-opacity="0.2"/>
<path d="M60.9524 0H0V60.9524M60.9524 0V60.9524M60.9524 0H121.905M60.9524 60.9524H0M60.9524 60.9524H121.905M60.9524 60.9524V121.905M0 60.9524L0 121.905M121.905 0V60.9524M121.905 0H182.857M121.905 60.9524H182.857M121.905 60.9524L121.905 121.905M182.857 0V60.9524M182.857 0H243.81M182.857 60.9524H243.81M182.857 60.9524V121.905M243.81 0V60.9524M243.81 0H304.762M243.81 60.9524H304.762M243.81 60.9524V121.905M304.762 0V60.9524M304.762 0H365.714M304.762 60.9524H365.714M304.762 60.9524V121.905M365.714 0V60.9524M365.714 0H426.667M365.714 60.9524H426.667M365.714 60.9524V121.905M426.667 0V60.9524M426.667 0H487.619M426.667 60.9524H487.619M426.667 60.9524V121.905M487.619 0V60.9524M487.619 0H548.571M487.619 60.9524H548.571M487.619 60.9524V121.905M548.571 0V60.9524M548.571 0H609.524M548.571 60.9524H609.524M548.571 60.9524V121.905M609.524 0V60.9524M609.524 0H670.476M609.524 60.9524H670.476M609.524 60.9524V121.905M670.476 0V60.9524M670.476 0H731.429M670.476 60.9524H731.429M670.476 60.9524V121.905M731.429 0V60.9524M731.429 0H792.381M731.429 60.9524H792.381M731.429 60.9524V121.905M792.381 0V60.9524M792.381 0H853.333M792.381 60.9524H853.333M792.381 60.9524V121.905M853.333 0V60.9524M853.333 0H914.286M853.333 60.9524H914.286M853.333 60.9524V121.905M914.286 0V60.9524M914.286 0H975.238M914.286 60.9524H975.238M914.286 60.9524V121.905M975.238 0V60.9524M975.238 0H1036.19M975.238 60.9524H1036.19M975.238 60.9524V121.905M1036.19 0V60.9524M1036.19 0H1097.14M1036.19 60.9524H1097.14M1036.19 60.9524L1036.19 121.905M1097.14 0V60.9524M1097.14 0H1158.1M1097.14 60.9524H1158.1M1097.14 60.9524L1097.14 121.905M1158.1 0V60.9524M1158.1 0H1219.05M1158.1 60.9524H1219.05M1158.1 60.9524L1158.1 121.905M1219.05 0V60.9524M1219.05 0H1280V60.9524M1219.05 60.9524H1280M1219.05 60.9524L1219.05 121.905M1280 60.9524L1280 121.905M60.9524 121.905H0M60.9524 121.905L121.905 121.905M60.9524 121.905V182.857M0 121.905V182.857M121.905 121.905H182.857M121.905 121.905V182.857M182.857 121.905H243.81M182.857 121.905V182.857M243.81 121.905H304.762M243.81 121.905V182.857M304.762 121.905H365.714M304.762 121.905V182.857M365.714 121.905H426.667M365.714 121.905V182.857M426.667 121.905H487.619M426.667 121.905V182.857M487.619 121.905H548.571M487.619 121.905V182.857M548.571 121.905H609.524M548.571 121.905V182.857M609.524 121.905H670.476M609.524 121.905V182.857M670.476 121.905H731.429M670.476 121.905V182.857M731.429 121.905H792.381M731.429 121.905V182.857M792.381 121.905H853.333M792.381 121.905V182.857M853.333 121.905H914.286M853.333 121.905V182.857M914.286 121.905H975.238M914.286 121.905V182.857M975.238 121.905L1036.19 121.905M975.238 121.905V182.857M1036.19 121.905H1097.14M1036.19 121.905L1036.19 182.857M1097.14 121.905H1158.1M1097.14 121.905L1097.14 182.857M1158.1 121.905H1219.05M1158.1 121.905L1158.1 182.857M1219.05 121.905H1280M1219.05 121.905L1219.05 182.857M1280 121.905L1280 182.857M60.9524 182.857H0M60.9524 182.857H121.905M60.9524 182.857V243.809M0 182.857V243.809M121.905 182.857H182.857M121.905 182.857V243.809M182.857 182.857H243.81M182.857 182.857V243.809M243.81 182.857H304.762M243.81 182.857V243.809M304.762 182.857H365.714M304.762 182.857V243.809M365.714 182.857H426.667M365.714 182.857V243.809M426.667 182.857H487.619M426.667 182.857V243.809M487.619 182.857H548.571M487.619 182.857V243.809M548.571 182.857H609.524M548.571 182.857V243.809M609.524 182.857H670.476M609.524 182.857V243.809M670.476 182.857H731.429M670.476 182.857V243.809M731.429 182.857H792.381M731.429 182.857V243.809M792.381 182.857H853.333M792.381 182.857V243.809M853.333 182.857H914.286M853.333 182.857V243.809M914.286 182.857H975.238M914.286 182.857V243.809M975.238 182.857H1036.19M975.238 182.857V243.809M1036.19 182.857H1097.14M1036.19 182.857V243.809M1097.14 182.857H1158.1M1097.14 182.857V243.809M1158.1 182.857H1219.05M1158.1 182.857V243.809M1219.05 182.857H1280M1219.05 182.857V243.809M1280 182.857V243.809M60.9524 243.809H0M60.9524 243.809H121.905M60.9524 243.809V304.762M0 243.809V304.762M121.905 243.809H182.857M121.905 243.809V304.762M182.857 243.809H243.81M182.857 243.809V304.762M243.81 243.809H304.762M243.81 243.809V304.762M304.762 243.809H365.714M304.762 243.809V304.762M365.714 243.809H426.667M365.714 243.809V304.762M426.667 243.809H487.619M426.667 243.809V304.762M487.619 243.809H548.571M487.619 243.809V304.762M548.571 243.809H609.524M548.571 243.809V304.762M609.524 243.809H670.476M609.524 243.809V304.762M670.476 243.809H731.429M670.476 243.809V304.762M731.429 243.809H792.381M731.429 243.809V304.762M792.381 243.809H853.333M792.381 243.809V304.762M853.333 243.809H914.286M853.333 243.809V304.762M914.286 243.809H975.238M914.286 243.809L914.286 304.762M975.238 243.809H1036.19M975.238 243.809V304.762M1036.19 243.809H1097.14M1036.19 243.809L1036.19 304.762M1097.14 243.809H1158.1M1097.14 243.809L1097.14 304.762M1158.1 243.809H1219.05M1158.1 243.809L1158.09 304.762M1219.05 243.809H1280M1219.05 243.809L1219.05 304.762M1280 243.809L1280 304.762M60.9524 304.762H0M60.9524 304.762H121.905M60.9524 304.762V365.714M0 304.762V365.714M121.905 304.762H182.857M121.905 304.762V365.714M182.857 304.762H243.81M182.857 304.762V365.714M243.81 304.762H304.762M243.81 304.762V365.714M304.762 304.762H365.714M304.762 304.762V365.714M365.714 304.762H426.667M365.714 304.762V365.714M426.667 304.762H487.619M426.667 304.762V365.714M487.619 304.762H548.571M487.619 304.762V365.714M548.571 304.762H609.524M548.571 304.762V365.714M609.524 304.762H670.476M609.524 304.762V365.714M670.476 304.762H731.429M670.476 304.762V365.714M731.429 304.762H792.381M731.429 304.762V365.714M792.381 304.762H853.333M792.381 304.762V365.714M853.333 304.762H914.286M853.333 304.762V365.714M914.286 304.762H975.238M914.286 304.762L914.286 365.714M975.238 304.762H1036.19M975.238 304.762V365.714M1036.19 304.762H1097.14M1036.19 304.762L1036.19 365.714M1097.14 304.762H1158.09M1097.14 304.762L1097.14 365.714M1158.09 304.762H1219.05M1158.09 304.762L1158.1 365.714M1219.05 304.762H1280M1219.05 304.762L1219.05 365.714M1280 304.762L1280 365.714M60.9524 365.714H0M60.9524 365.714L121.905 365.714M60.9524 365.714V426.667M0 365.714V426.667M121.905 365.714H182.857M121.905 365.714V426.667M182.857 365.714H243.81M182.857 365.714V426.667M243.81 365.714H304.762M243.81 365.714V426.667M304.762 365.714H365.714M304.762 365.714V426.667M365.714 365.714H426.667M365.714 365.714V426.667M426.667 365.714H487.619M426.667 365.714L426.667 426.667M487.619 365.714H548.571M487.619 365.714L487.619 426.667M548.571 365.714H609.524M548.571 365.714L548.571 426.667M609.524 365.714H670.476M609.524 365.714L609.524 426.667M670.476 365.714H731.429M670.476 365.714L670.476 426.667M731.429 365.714H792.381M731.429 365.714V426.667M792.381 365.714H853.333M792.381 365.714L792.381 426.667M853.333 365.714H914.286M853.333 365.714L853.333 426.667M914.286 365.714H975.238M914.286 365.714V426.667M975.238 365.714H1036.19M975.238 365.714L975.238 426.667M1036.19 365.714H1097.14M1036.19 365.714L1036.19 426.667M1097.14 365.714H1158.1M1097.14 365.714L1097.14 426.667M1158.1 365.714H1219.05M1158.1 365.714L1158.1 426.667M1219.05 365.714H1280M1219.05 365.714L1219.05 426.667M1280 365.714L1280 426.667M60.9524 426.667H0M60.9524 426.667H121.905M60.9524 426.667V487.619M0 426.667V487.619M121.905 426.667H182.857M121.905 426.667L121.905 487.619M182.857 426.667H243.81M182.857 426.667L182.857 487.619M243.81 426.667H304.762M243.81 426.667V487.619M304.762 426.667H365.714M304.762 426.667L304.762 487.619M365.714 426.667H426.667M365.714 426.667V487.619M426.667 426.667H487.619M426.667 426.667V487.619M487.619 426.667H548.571M487.619 426.667V487.619M548.571 426.667H609.524M548.571 426.667V487.619M609.524 426.667H670.476M609.524 426.667V487.619M670.476 426.667H731.429M670.476 426.667V487.619M731.429 426.667H792.381M731.429 426.667V487.619M792.381 426.667H853.333M792.381 426.667V487.619M853.333 426.667H914.286M853.333 426.667V487.619M914.286 426.667H975.238M914.286 426.667V487.619M975.238 426.667H1036.19M975.238 426.667V487.619M1036.19 426.667H1097.14M1036.19 426.667V487.619M1097.14 426.667H1158.1M1097.14 426.667V487.619M1158.1 426.667H1219.05M1158.1 426.667V487.619M1219.05 426.667H1280M1219.05 426.667V487.619M1280 426.667V487.619M60.9524 487.619H0M60.9524 487.619H121.905M60.9524 487.619V548.571M0 487.619V548.571M121.905 487.619H182.857M121.905 487.619L121.905 548.571M182.857 487.619H243.81M182.857 487.619L182.857 548.571M243.81 487.619H304.762M243.81 487.619V548.571M304.762 487.619H365.714M304.762 487.619L304.762 548.571M365.714 487.619H426.667M365.714 487.619V548.571M426.667 487.619H487.619M426.667 487.619L426.667 548.571M487.619 487.619H548.571M487.619 487.619L487.619 548.571M548.571 487.619H609.524M548.571 487.619L548.571 548.571M609.524 487.619H670.476M609.524 487.619L609.524 548.571M670.476 487.619H731.429M670.476 487.619L670.476 548.571M731.429 487.619H792.381M731.429 487.619V548.571M792.381 487.619H853.333M792.381 487.619L792.381 548.571M853.333 487.619H914.286M853.333 487.619L853.333 548.571M914.286 487.619H975.238M914.286 487.619V548.571M975.238 487.619H1036.19M975.238 487.619L975.238 548.571M1036.19 487.619H1097.14M1036.19 487.619L1036.19 548.571M1097.14 487.619H1158.1M1097.14 487.619L1097.14 548.571M1158.1 487.619H1219.05M1158.1 487.619L1158.1 548.571M1219.05 487.619H1280M1219.05 487.619L1219.05 548.571M1280 487.619L1280 548.571M60.9524 548.571H0M60.9524 548.571H121.905M60.9524 548.571V609.524M0 548.571V609.524M121.905 548.571H182.857M121.905 548.571V609.524M182.857 548.571H243.81M182.857 548.571V609.524M243.81 548.571H304.762M243.81 548.571V609.524M304.762 548.571H365.714M304.762 548.571V609.524M365.714 548.571H426.667M365.714 548.571V609.524M426.667 548.571H487.619M426.667 548.571V609.524M487.619 548.571H548.571M487.619 548.571V609.524M548.571 548.571H609.524M548.571 548.571V609.524M609.524 548.571H670.476M609.524 548.571V609.524M670.476 548.571H731.429M670.476 548.571V609.524M731.429 548.571H792.381M731.429 548.571V609.524M792.381 548.571H853.333M792.381 548.571V609.524M853.333 548.571H914.286M853.333 548.571V609.524M914.286 548.571H975.238M914.286 548.571V609.524M975.238 548.571H1036.19M975.238 548.571V609.524M1036.19 548.571H1097.14M1036.19 548.571V609.524M1097.14 548.571H1158.1M1097.14 548.571V609.524M1158.1 548.571H1219.05M1158.1 548.571V609.524M1219.05 548.571H1280M1219.05 548.571V609.524M1280 548.571V609.524M60.9524 609.524H0M60.9524 609.524L121.905 609.524M60.9524 609.524V670.476M0 609.524V670.476M121.905 609.524H182.857M121.905 609.524V670.476M182.857 609.524H243.81M182.857 609.524V670.476M243.81 609.524H304.762M243.81 609.524V670.476M304.762 609.524H365.714M304.762 609.524V670.476M365.714 609.524H426.667M365.714 609.524V670.476M426.667 609.524H487.619M426.667 609.524V670.476M487.619 609.524H548.571M487.619 609.524V670.476M548.571 609.524H609.524M548.571 609.524V670.476M609.524 609.524H670.476M609.524 609.524V670.476M670.476 609.524H731.429M670.476 609.524V670.476M731.429 609.524H792.381M731.429 609.524V670.476M792.381 609.524H853.333M792.381 609.524V670.476M853.333 609.524H914.286M853.333 609.524V670.476M914.286 609.524H975.238M914.286 609.524V670.476M975.238 609.524H1036.19M975.238 609.524V670.476M1036.19 609.524H1097.14M1036.19 609.524V670.476M1097.14 609.524H1158.1M1097.14 609.524V670.476M1158.1 609.524H1219.05M1158.1 609.524V670.476M1219.05 609.524H1280M1219.05 609.524V670.476M1280 609.524V670.476M60.9524 670.476H0M60.9524 670.476H121.905M60.9524 670.476V731.429M0 670.476V731.429M121.905 670.476H182.857M121.905 670.476V731.429M182.857 670.476H243.81M182.857 670.476V731.429M243.81 670.476H304.762M243.81 670.476V731.429M304.762 670.476H365.714M304.762 670.476V731.429M365.714 670.476H426.667M365.714 670.476V731.429M426.667 670.476H487.619M426.667 670.476V731.429M487.619 670.476H548.571M487.619 670.476V731.429M548.571 670.476H609.524M548.571 670.476V731.429M609.524 670.476H670.476M609.524 670.476V731.429M670.476 670.476H731.429M670.476 670.476V731.429M731.429 670.476H792.381M731.429 670.476V731.429M792.381 670.476H853.333M792.381 670.476V731.429M853.333 670.476H914.286M853.333 670.476V731.429M914.286 670.476H975.238M914.286 670.476V731.429M975.238 670.476H1036.19M975.238 670.476V731.429M1036.19 670.476H1097.14M1036.19 670.476V731.429M1097.14 670.476H1158.1M1097.14 670.476V731.429M1158.1 670.476H1219.05M1158.1 670.476V731.429M1219.05 670.476H1280M1219.05 670.476V731.429M1280 670.476V731.429M60.9524 731.429H0M60.9524 731.429H121.905M60.9524 731.429V792.381M0 731.429V792.381H60.9524M121.905 731.429H182.857M121.905 731.429V792.381M182.857 731.429H243.81M182.857 731.429V792.381M243.81 731.429H304.762M243.81 731.429V792.381M304.762 731.429H365.714M304.762 731.429V792.381M365.714 731.429H426.667M365.714 731.429V792.381M426.667 731.429H487.619M426.667 731.429V792.381M487.619 731.429H548.571M487.619 731.429V792.381M548.571 731.429H609.524M548.571 731.429V792.381M609.524 731.429H670.476M609.524 731.429V792.381M670.476 731.429H731.429M670.476 731.429V792.381M731.429 731.429H792.381M731.429 731.429V792.381M792.381 731.429H853.333M792.381 731.429V792.381M853.333 731.429H914.286M853.333 731.429V792.381M914.286 731.429H975.238M914.286 731.429V792.381M975.238 731.429H1036.19M975.238 731.429V792.381M1036.19 731.429H1097.14M1036.19 731.429V792.381M1097.14 731.429H1158.1M1097.14 731.429V792.381M1158.1 731.429H1219.05M1158.1 731.429V792.381M1219.05 731.429H1280M1219.05 731.429V792.381M1280 731.429V792.381H1219.05M60.9524 792.381H121.905M121.905 792.381H182.857M182.857 792.381H243.81M243.81 792.381H304.762M304.762 792.381H365.714M365.714 792.381H426.667M426.667 792.381H487.619M487.619 792.381H548.571M548.571 792.381H609.524M609.524 792.381H670.476M670.476 792.381H731.429M731.429 792.381H792.381M792.381 792.381H853.333M853.333 792.381H914.286M914.286 792.381H975.238M975.238 792.381H1036.19M1036.19 792.381H1097.14M1097.14 792.381H1158.1M1158.1 792.381H1219.05" stroke="#292929" stroke-opacity="0.15" stroke-width="1.21905"/>
</svg>
